<svg xmlns="http://www.w3.org/2000/svg" width="180" height="180" viewBox="0 0 64 64" role="img" aria-labelledby="title">
  <title id="title">Streetbeat</title>
  <defs>
    <linearGradient id="brand" x1="10" y1="54" x2="54" y2="10" gradientUnits="userSpaceOnUse">
      <stop stop-color="#21fc85"/>
      <stop offset="0.52" stop-color="#04b2af"/>
      <stop offset="1" stop-color="#18f4f4"/>
    </linearGradient>
  </defs>
  <rect width="64" height="64" rx="14" fill="#111112"/>
  <path d="M36.6 47.7c0-5.8-2-11.3-5.6-15.7H5.8c-2.9 0-3.6 2.5-1.9 4.4L28.6 61c1.6 1.5 3.4 1.3 4.4-.5a25 25 0 0 0 3.6-12.8ZM25.3 16.4c0 6 2.1 11.4 5.7 15.6h25.2c3 0 3.6-2.6 1.8-4.3L33.3 3c-1.5-1.6-3.2-1.3-4.3.6a25.3 25.3 0 0 0-3.7 12.8Z" fill="url(#brand)"/>
</svg>
